<svg xmlns="http://www.w3.org/2000/svg" xml:space="preserve" style="enable-background:new 0 0 750 750"
     viewBox="85 160 580 420" width="210" height="120">
  <switch>
    <g>
      <path d="M650.3 297.6c-13.9 13.3-36.1 30.5-50.1 39.3-15.9 10-37.6 23.1-60.2 35.3-3.1 1.7-4.3 5.7-2.6 8.7 8.9 15.5 12.3 33.9 15.7 50.3 1.7 8.1 2.8 16.4 3.4 24.7 0 0 2.4 38.6 4.6 71.9 3.6 3.7 8.7 5.6 15.5.3 14.9-11.7 19-3.9 19-3.9s2.1 1.1 3.7-1.1c1.7-2.2 7.1-3.5 10.6 1.1 3.5 4.7 11.9.2 11.9.2s4.1-.6 6.9 7.5c1.5 4.3 6.5 6.8 10.8 8.1 4.6 1.5 7.9 5.6 8.4 10.5l.3 3.3c.3 4.8.6 10.1-1.2 14.6-.7 1.9-1.9 3.4-3.8 4.3-1 .5-1.8.4-2.9.4h-3.4c-7.7.1-15.3 0-23 0H124.3c-4.8 0-9.6 0-14.4.1-2.7.1-5.8-.2-7.6-2.4-1.3-1.7-2-3.8-2.3-5.9-.8-4.8-.4-9.8.1-14.6.5-4.8 3.8-9 8.4-10.5 4.3-1.4 9.3-3.8 10.8-8.1 2.8-8 6.9-7.5 6.9-7.5s8.4 4.5 11.9-.2 9-3.4 10.6-1.1c1.7 2.2 3.7 1.1 3.7 1.1s4.1-7.8 19 3.9c5.2 4.1 9.4 3.9 12.7 2 6.7-21.9 7.9-72.6 8.9-82.3 2.3-22.2 8.9-47.5 18.6-66.4v-.1c1.8-3.5.5-7.9-3-9.8-22.2-12.1-43.5-24.9-59.1-34.7-13.9-8.8-36.2-26-50.1-39.3-29-27.7-85.2-107.1-72.2-120.9 0 0 122.2-8.4 240.6 137 5.6 6.9 15.4 9 23.4 5.1 2.8-1.4 5.7-2.7 8.5-4 19.5-8.4 40.5-13.4 61.7-14.8 24.3-1.6 48.8 1.3 72 8.9 8.4 2.8 16.7 6.2 24.6 10.1 8 4 17.8 1.9 23.5-5C600 167.9 722.4 176.3 722.4 176.3c13.2 14.2-43.1 93.6-72.1 121.3z"/>
        <path d="M120.5 540.9c2-13.3 7-9.2 10-5.1 1.2 1.7 3.8 1.6 4.9-.2 7.8-12.7 10.7-6.2 11.5-3.2.2.8.8 1.4 1.6 1.7 1 .3 2 0 2.7-.8 11-14.2 12.7-3.7 12.9 2.6 0 1.5 1.7 2.3 3 1.5 12.1-8.3 9.2 13.9 9.2 13.9 6.1 1.1 9.7 7.8 11.5 12.3.8 2-.7 4.1-2.8 4.1h-76.2c-10.7-21.8 11.7-26.8 11.7-26.8zm506.3 0c-2-13.3-7-9.2-10-5.1-1.2 1.7-3.8 1.6-4.9-.2-7.8-12.7-10.7-6.2-11.5-3.2-.2.8-.8 1.4-1.6 1.7-1 .3-2 0-2.7-.8-11-14.2-12.7-3.7-12.9 2.6 0 1.5-1.7 2.3-3 1.5-12.1-8.3-9.2 13.9-9.2 13.9-6.1 1.1-9.7 7.8-11.5 12.3-.8 2 .7 4.1 2.8 4.1h76.2c10.7-21.8-11.7-26.8-11.7-26.8zm38.3-339.3c-4.1 27.8-13.3 86-37.3 106.2-14.3 12-32.7 23.9-46.2 32.4-7.5 4.7-14.6 10.2-22 15-4 2.6-8.2 5-12.5 7.1-3 1.4-9 5.2-12.3 4.3-1.3-.3-2.4-1.2-3.5-2s-2.3-1.6-3.6-1.8c-2.3-.4-3.2 1-3.7 2.9-.6 2.4-.2 5 1 7.2 13.6 24.4 22.7 52 25 79.8.9 10.9-.4 21.7.2 32.5.6 10.3 1.5 20.6 3.9 30.6.6 2.6 1.3 5.2 2.1 7.7.4 1.3 2.2 7.3-.6 8-.5.1-1 0-1.4-.1-13.1-3.5-24.7-7.3-37.9-1.4-8.9 4-13.2 10.6-18.3 18.7-1.9 3.1-3.6 6.3-5.1 9.6-.7 1.7-1.3 3.4-2 5.1-.1.4-.8 4.5-.8 4.5s-26.1.1-31.6.1c-10.8-.1-21.6-.1-32.4-.1-5.9 0-11.8-.1-17.7-.1l.8-7.2h.7c8 0 16.9-3 25.2-12.4.8-.9.7-2.3-.2-3.2-.9-.8-2.3-.7-3.2.2-18.9 21.6-41.1 5-43.4 3.2-1.7-1.9-13.3-13.6-37.2 3.5-6.4 4.6-12.9 6.4-19.1 5.3-11.1-2-18.3-12.4-18.4-12.5-.7-1-2.1-1.3-3.1-.6-1 .7-1.3 2.1-.6 3.1.3.5 8.3 12.1 21.2 14.4 1.5.3 3 .4 4.5.4.8 0 1.5 0 2.3-.1l.2 5.6c-6.9 0-13.8-.1-20.8-.2-14.7-.2-29.3-.5-44-.7-5.6-.1-11.3-.3-16.8-.3.3-11.5-7.8-23.9-16.3-30.9-10.4-8.6-25.5-9.5-38.1-6.4-2.9.7-10.8 5.4-13 2-1.5-2.4 3.3-6.9 4-9.1 4.5-14.2 5.3-30.1 6.8-44.8 2-19.7 1.2-39.3 4.7-58.8 1.5-8.3 3.8-16.6 7.2-24.3 1.7-3.9 3.7-7.7 6-11.3 1.9-3 4.3-5.6 6.1-8.7 1.4-2.2 5.6-11 .2-11.3-4.2-.2-5.2 3.5-12.4 2.6-8.8-1.1-17.5-6.7-24.7-11.5-7.2-4.7-13.9-10-21.2-14.6-13.5-8.5-36.5-22.5-49.6-35.8-21-21.4-35.6-96.9-31.8-108 0 0 69.5-1.8 180.2 129.2 5.6 6.6 15 8.6 22.9 4.8 2.6-1.3 5.3-2.5 8-3.7 18.9-8.1 49.2-14.1 69.7-15.4 23.5-1.6 47.2 1.3 69.6 8.7 8.2 2.7 20.6 8.2 28.3 12 7.8 3.9 18.4-2.6 23.8-9.3 78.2-97.5 145.6-121.5 170.6-126.8 4.9-1.3 8.3 1.8 7.6 6.7zm-360 273c0-19.3-15.7-35-35-35s-35 15.7-35 35 15.7 35 35 35c19.3-.1 35-15.7 35-35zm76.2 20.4h-16.4c-4 0-6.4 4.4-4.3 7.7l3.8 6.1c4.3 5.8 13 5.8 17.3 0l3.8-6.1c2.2-3.3-.2-7.7-4.2-7.7zm131.3-20.4c0-19.3-15.7-35-35-35s-35 15.7-35 35 15.7 35 35 35c19.4-.1 35-15.7 35-35z"
              style="fill:#fcd20b"/>
        <path d="M196.6 567.5s-12.1-9.7-10.8-23.3c0 0 47.5-32.9 63.5 23.4l-52.7-.1zm353.3 0s12.1-9.7 10.8-23.3c0 0-47.5-32.9-63.5 23.4l52.7-.1zm-145.4 1 .2-4.9c.1-1.8-1.1-3.3-2.8-3.7-4-.8-11-2.9-14.7-7.7-5.4-6.9-20.3-7.8-28 .4-4.7 5.1-10.1 6.7-13.6 7.2-2.1.3-3.6 2.1-3.6 4.2v4.2l62.5.3z"
              style="fill:#ed1c24"/>
        <path d="M294.7 463.1c0 8.9-7.2 16-16 16-8.9 0-16-7.2-16-16 0-8.9 7.2-16 16-16s16 7.2 16 16zm173.4-16c-8.9 0-16 7.2-16 16 0 8.9 7.2 16 16 16 8.9 0 16-7.2 16-16s-7.2-16-16-16z"
              style="fill:#fff"/>
        <path d="M292.5 482.6c0 .4.1.9.1 1.3 0 11.4-9.2 20.6-20.6 20.6-10.5 0-19.1-7.8-20.4-17.9 5.4 1.5 12.1 2.2 19.2 1.7 8.5-.6 16.2-2.7 21.7-5.7zm161.7 0c0 .4-.1.9-.1 1.3 0 11.4 9.2 20.6 20.6 20.6 10.5 0 19.1-7.8 20.4-17.9-5.4 1.5-12.1 2.2-19.2 1.7-8.5-.6-16.2-2.7-21.7-5.7z"
              style="fill:#765241"/>
    </g>
  </switch>
</svg>
